<?xml version="1.0" encoding="UTF-8"?>
<svg version="1.1" xmlns="http://www.w3.org/2000/svg" width="625" height="625">
<path d="M0 0 C3.61528618 0.03457609 7.22814636 0.02049416 10.84350586 0.0012207 C24.78920084 0.0091203 37.77243321 1.13327215 51.28686523 4.59692383 C52.4532251 4.88446533 53.61958496 5.17200684 54.82128906 5.46826172 C57.7467711 6.22590247 60.64175862 7.04354276 63.53686523 7.90942383 C64.54861816 8.21082275 65.56037109 8.51222168 66.6027832 8.82275391 C87.09551087 15.09194292 107.53583805 25.19610208 124.28686523 38.59692383 C125.4572438 39.49471133 126.62923649 40.39039696 127.80249023 41.28442383 C129.04803692 42.24177566 130.29283478 43.20010255 131.53686523 44.15942383 C132.38764648 44.81213257 132.38764648 44.81213257 133.25561523 45.47802734 C134.34962538 46.33543863 135.42661751 47.21513411 136.48302555 48.11846924 C138.23523601 49.61903563 138.23523601 49.61903563 140.11712551 50.73942566 C143.85996858 53.5123391 145.14273485 55.74381437 145.92514229 60.37489319 C146.2605216 65.39962244 146.17610253 70.42392962 146.11328125 75.45629883 C146.11458158 77.3966921 146.11893744 79.33708538 146.12611389 81.27746582 C146.13665555 86.53810399 146.10374853 91.79766695 146.06248593 97.05812073 C146.02611472 102.56679221 146.02792138 108.07545641 146.02513123 113.58422852 C146.01499499 122.83474123 145.97880035 132.08484902 145.92480469 141.33520508 C145.85564539 153.20240927 145.82789232 165.06932378 145.81381321 176.93670654 C145.80152131 187.14681159 145.77178624 197.35685454 145.73842883 207.56690979 C145.72827663 210.84526342 145.72020333 214.12361785 145.71228218 217.40197754 C145.69857798 222.5566457 145.67403225 227.71115765 145.64113426 232.86573792 C145.63051488 234.75592979 145.62320929 236.64614366 145.61948395 238.53636169 C145.61372919 241.1195258 145.59568877 243.70232339 145.57447815 246.28540039 C145.57552899 247.03064342 145.57657984 247.77588646 145.57766253 248.54371262 C145.52238194 253.20205412 144.89212031 257.21834768 143.28686523 261.59692383 C140.12879414 264.53466438 138.41920772 265.60795762 134.07983398 265.56567383 C129.1036003 264.29470992 126.18537403 261.83407038 122.28686523 258.59692383 C106.17306402 245.79686197 87.89396573 235.97986973 68.28686523 229.59692383 C67.5250293 229.33524414 66.76319336 229.07356445 65.97827148 228.80395508 C24.61810465 214.68271961 -24.24112898 214.0081784 -65.59008789 228.84106445 C-67.60599811 229.55878042 -69.63187379 230.23063389 -71.66625977 230.89379883 C-87.79170972 236.3313559 -103.44271923 244.9805914 -116.71313477 255.59692383 C-117.82487758 256.44789581 -118.93827347 257.29671084 -120.05297852 258.14379883 C-128.00317244 264.22796447 -135.45899793 270.70222621 -142.71313477 277.59692383 C-143.34477539 278.17571289 -143.97641602 278.75450195 -144.62719727 279.35083008 C-150.7155529 285.1073559 -155.69295483 291.91738323 -160.71313477 298.59692383 C-161.17171875 299.20536133 -161.63030273 299.81379883 -162.1027832 300.44067383 C-163.40736215 302.1889038 -164.68932333 303.95118875 -165.96313477 305.72192383 C-166.71079102 306.75575195 -167.45844727 307.78958008 -168.22875977 308.85473633 C-169.94026761 311.40904161 -169.94026761 311.40904161 -169.50219727 313.83520508 C-169.11161133 314.70725586 -169.11161133 314.70725586 -168.71313477 315.59692383 C-168.42438477 316.27754883 -168.13563477 316.95817383 -167.83813477 317.65942383 C-166.83019975 319.60535501 -166.83019975 319.60535501 -165.37719727 320.86254883 C-163.20314782 323.12845951 -161.67003305 325.64799373 -159.96313477 328.28442383 C-154.17315662 336.91444244 -146.95056851 344.18448821 -139.71313477 351.59692383 C-138.76729559 352.58209554 -137.82192609 353.56771856 -136.87719727 354.55395508 C-131.50372214 360.07151392 -125.80989312 364.90183179 -119.71313477 369.59692383 C-118.97321289 370.20407227 -118.23329102 370.8112207 -117.47094727 371.43676758 C-112.68543945 375.32818585 -107.77683877 378.34732669 -102.31469727 381.20629883 C-100.12987651 382.37416097 -98.0895201 383.60812295 -96.02563477 384.97192383 C-84.68637549 392.18145287 -71.99491861 398.05825445 -58.88110352 401.04223633 C-56.25210587 401.71488077 -53.72212904 402.60467478 -51.15063477 403.47192383 C-44.87695541 405.43107282 -38.55992959 406.65839703 -32.08813477 407.78442383 C-31.13479248 407.95119629 -30.1814502 408.11796875 -29.19921875 408.28979492 C0.0517095 413.18717997 32.01483415 411.89980295 60.28686523 402.59692383 C61.33100586 402.26692383 62.37514648 401.93692383 63.45092773 401.59692383 C66.41177734 400.63745864 69.34808321 399.62160375 72.28686523 398.59692383 C73.5340332 398.20633789 73.5340332 398.20633789 74.80639648 397.80786133 C84.51456238 394.61654412 93.374141 389.52163866 102.28686523 384.59692383 C102.96861816 384.2240625 103.65037109 383.85120117 104.3527832 383.46704102 C114.9455793 377.61996763 124.06007454 370.38524539 133.28686523 362.59692383 C138.03972939 358.59692383 138.03972939 358.59692383 140.28686523 358.59692383 C140.61686523 357.60692383 140.94686523 356.61692383 141.28686523 355.59692383 C142.93686523 355.26692383 144.58686523 354.93692383 146.28686523 354.59692383 C148.94422957 359.98486475 149.79690086 364.34321821 149.9672699 370.31526184 C150.0169662 371.55687347 150.0169662 371.55687347 150.06766647 372.82356817 C150.39955312 381.91488328 150.42012776 391.00742206 150.40039062 400.10351562 C150.4001076 401.96836343 150.40026872 403.83321134 150.40083313 405.69805908 C150.40111663 410.69471854 150.3952932 415.69135332 150.38825917 420.68800712 C150.38195022 425.93432215 150.38141593 431.18063793 150.38023376 436.42695618 C150.37714247 446.33217485 150.36895916 456.2373823 150.35888427 466.14259607 C150.34765426 477.43181673 150.34219543 488.72103797 150.33718884 500.01026285 C150.32677438 523.20582269 150.30921816 546.40137263 150.28686523 569.59692383 C148.96686523 570.25692383 147.64686523 570.91692383 146.28686523 571.59692383 C146.28686523 572.25692383 146.28686523 572.91692383 146.28686523 573.59692383 C144.09618771 575.51784268 141.90049734 577.31762688 139.59936523 579.09692383 C138.97352539 579.59579102 138.34768555 580.0946582 137.70288086 580.60864258 C134.36415183 583.21669688 131.37411414 585.28400257 127.28686523 586.59692383 C127.28686523 587.25692383 127.28686523 587.91692383 127.28686523 588.59692383 C125.52124023 589.89038086 125.52124023 589.89038086 123.03686523 591.35473633 C122.12541748 591.89437012 121.21396973 592.43400391 120.27490234 592.98999023 C119.2888501 593.56152832 118.30279785 594.13306641 117.28686523 594.72192383 C116.29114502 595.30506348 115.2954248 595.88820313 114.26953125 596.48901367 C107.14604666 600.62117227 99.92511232 604.45041258 92.50170898 608.01098633 C89.34629923 609.49895769 89.34629923 609.49895769 86.75952148 611.18676758 C83.83041015 612.85724024 81.04285122 613.6644184 77.78686523 614.53442383 C73.04860805 615.83027287 68.34634409 617.18070882 63.66186523 618.65942383 C48.76022276 623.25980982 34.32508462 625.89659815 18.70092773 625.96801758 C17.44210785 625.97704605 16.18328796 625.98607452 14.88632202 625.99537659 C12.23567391 626.00979398 9.5854539 626.01953751 6.93481445 626.02246094 C2.95664281 626.02885167 -1.02043693 626.08351529 -4.99829102 626.1340332 C-26.75353786 626.27113311 -46.20976962 622.5867074 -66.71313477 615.59692383 C-67.84235352 615.24243164 -68.97157227 614.88793945 -70.13500977 614.52270508 C-80.61810638 611.08067451 -90.1098583 605.97230414 -99.71313477 600.59692383 C-100.40648926 600.20956055 -101.09984375 599.82219727 -101.81420898 599.4230957 C-114.52777571 592.24381668 -125.6782641 583.7160998 -136.35766602 573.76098633 C-138.77919035 571.47791564 -138.77919035 571.47791564 -141.83813477 569.15942383 C-147.28279698 564.30657272 -152.7357981 558.32760513 -155.71313477 551.59692383 C-156.37313477 551.59692383 -157.03313477 551.59692383 -157.71313477 551.59692383 C-159.47997331 549.48960078 -161.10695243 547.38568136 -162.71313477 545.15942383 C-163.20225342 544.48274658 -163.69137207 543.80606934 -164.1953125 543.10888672 C-169.56347585 535.55917658 -174.35638333 527.7707895 -178.71313477 519.59692383 C-179.12418457 518.82654785 -179.53523438 518.05617188 -179.95874023 517.26245117 C-192.42906291 493.29080005 -199.61673265 465.35650513 -202.71313477 438.59692383 C-202.83606903 437.64669846 -202.83606903 437.64669846 -202.96148682 436.67727661 C-203.95855685 428.15480974 -203.9631525 419.60292773 -204.06469727 411.03442383 C-204.08860532 409.22936914 -204.11258951 407.42431546 -204.13664246 405.6192627 C-204.21359027 399.6119124 -204.27712284 393.60445449 -204.33813477 387.59692383 C-204.34888912 386.56115204 -204.35964348 385.52538025 -204.37072372 384.45822144 C-204.78173223 344.31054288 -204.77037846 304.16483433 -204.55877423 264.01616859 C-204.53133924 258.66239979 -204.51354036 253.30865385 -204.49981689 247.95483398 C-204.48249446 241.34250722 -204.45016061 234.73043661 -204.40019518 228.11827326 C-204.37474187 224.71833858 -204.35681541 221.31886717 -204.35164452 217.91880798 C-204.27854219 179.78496697 -197.7025849 140.19682709 -178.71313477 106.59692383 C-178.31255859 105.8822998 -177.91198242 105.16767578 -177.49926758 104.43139648 C-170.95330414 92.89719887 -163.36113592 82.63295029 -154.71313477 72.59692383 C-154.00930664 71.77450195 -153.30547852 70.95208008 -152.58032227 70.10473633 C-151.48654228 68.84419168 -150.38480588 67.59046163 -149.27172852 66.34692383 C-148.09908307 65.0302693 -146.94915614 63.69332693 -145.81079102 62.34692383 C-145.18043945 61.60442383 -144.55008789 60.86192383 -143.90063477 60.09692383 C-143.33731445 59.42661133 -142.77399414 58.75629883 -142.19360352 58.06567383 C-140.71313477 56.59692383 -140.71313477 56.59692383 -138.71313477 56.59692383 C-138.38313477 55.60692383 -138.05313477 54.61692383 -137.71313477 53.59692383 C-135.56079102 51.61645508 -135.56079102 51.61645508 -132.77563477 49.40942383 C-131.77790039 48.61407227 -130.78016602 47.8187207 -129.75219727 46.99926758 C-128.74930664 46.20649414 -127.74641602 45.4137207 -126.71313477 44.59692383 C-125.85461914 43.89696289 -124.99610352 43.19700195 -124.11157227 42.47583008 C-107.02970367 28.56630851 -87.76437875 17.32875795 -66.71313477 10.59692383 C-65.53493164 10.21020508 -64.35672852 9.82348633 -63.14282227 9.42504883 C-42.32010044 2.80578256 -21.84113076 -0.2304701 0 0 Z " fill="#3968A2" transform="translate(282.713134765625,-0.596923828125)"/>
<path d="M0 0 C1.65 0.66 3.3 1.32 5 2 C5.02333776 26.32995777 5.0409835 50.65991386 5.05181217 74.98988056 C5.05697326 86.28614488 5.06401241 97.58240225 5.07543945 108.87866211 C5.08539199 118.72196542 5.09185479 128.5652637 5.09408849 138.4085719 C5.09539463 143.62277835 5.09847437 148.83697041 5.10573006 154.05117226 C5.11249924 158.95532256 5.11461511 163.85945249 5.11310768 168.76360703 C5.1133836 170.56679965 5.11538341 172.36999294 5.11920547 174.17318153 C5.12415671 176.62881077 5.12299295 179.08436238 5.12025452 181.53999329 C5.12316736 182.25886209 5.1260802 182.9777309 5.12908131 183.71838361 C5.11986076 186.76265793 4.9712128 189.08636161 4 192 C1.734375 191.8359375 1.734375 191.8359375 -1 191 C-2.984375 188.6015625 -2.984375 188.6015625 -4.75 185.625 C-5.63945313 184.15933594 -5.63945313 184.15933594 -6.546875 182.6640625 C-8 180 -8 180 -9 177 C-9.66 177 -10.32 177 -11 177 C-12.74776911 174.63626365 -14.38547714 172.26521012 -16 169.8125 C-19.58243828 164.47938396 -23.23079842 159.25009269 -27.1875 154.1875 C-30.37784302 150.09365184 -33.54033692 145.98682438 -36.625 141.8125 C-37.27726562 140.93207031 -37.92953125 140.05164063 -38.6015625 139.14453125 C-40 137 -40 137 -40 135 C-40.66 135 -41.32 135 -42 135 C-42.93933665 133.64510427 -43.86817511 132.28204111 -44.75097656 130.88964844 C-47.23148532 127.136885 -50.09612036 123.65907411 -52.875 120.125 C-55.25630522 117.08819571 -57.63201585 114.04720426 -60 111 C-60.58813477 110.24686523 -61.17626953 109.49373047 -61.78222656 108.71777344 C-62.33104492 108.00395508 -62.87986328 107.29013672 -63.4453125 106.5546875 C-63.93789551 105.91772949 -64.43047852 105.28077148 -64.93798828 104.62451172 C-66 103 -66 103 -66 101 C-66.99 100.67 -67.98 100.34 -69 100 C-70.3125 97.6875 -70.3125 97.6875 -71 95 C-70.125 92.6875 -70.125 92.6875 -69 91 C-68.34 91 -67.68 91 -67 91 C-66.7525 90.278125 -66.505 89.55625 -66.25 88.8125 C-64.86693509 85.70060396 -63.20877083 83.58741726 -61 81 C-52.09104685 70.35756633 -43.85806793 59.18320879 -35.54980469 48.0703125 C-33.98664731 45.98216276 -32.4197207 43.89689627 -30.8515625 41.8125 C-26.50320478 36.03034842 -22.16070413 30.24964037 -17.9375 24.375 C-14.36145604 19.41661971 -10.59502279 14.62229759 -6.76733398 9.85693359 C-4.24595712 6.69369365 -1.98698997 3.52509184 0 0 Z " fill="#3C6EAA" transform="translate(542,213)"/>
<path d="M0 0 C2.65736433 5.38794093 3.51003563 9.74629438 3.68040466 15.71833801 C3.71353553 16.5460791 3.7466664 17.37382019 3.78080124 18.22664434 C4.11268788 27.31795946 4.13326252 36.41049823 4.11352539 45.5065918 C4.11324237 47.3714396 4.11340349 49.23628751 4.1139679 51.10113525 C4.11425139 56.09779471 4.10842796 61.0944295 4.10139394 66.09108329 C4.09508498 71.33739832 4.0945507 76.58371411 4.09336853 81.83003235 C4.09027723 91.73525102 4.08209392 101.64045848 4.07201904 111.54567224 C4.06078902 122.8348929 4.0553302 134.12411414 4.05032361 145.41333902 C4.03990914 168.60889886 4.02235292 191.8044488 4 215 C2.02 215.99 2.02 215.99 0 217 C0 217.66 0 218.32 0 219 C-2.19067752 220.92091885 -4.3863679 222.72070305 -6.6875 224.5 C-7.31333984 224.99886719 -7.93917969 225.49773437 -8.58398438 226.01171875 C-11.9227134 228.61977305 -14.91275109 230.68707874 -19 232 C-19 232.66 -19 233.32 -19 234 C-20.765625 235.29345703 -20.765625 235.29345703 -23.25 236.7578125 C-24.16144775 237.29744629 -25.07289551 237.83708008 -26.01196289 238.39306641 C-26.99801514 238.96460449 -27.98406738 239.53614258 -29 240.125 C-29.99572021 240.70813965 -30.99144043 241.2912793 -32.01733398 241.89208984 C-39.14081857 246.02424844 -46.36175292 249.85348875 -53.78515625 253.4140625 C-56.94056601 254.90203386 -56.94056601 254.90203386 -59.52734375 256.58984375 C-62.45645509 258.26031641 -65.24401402 259.06749457 -68.5 259.9375 C-73.23825719 261.23334904 -77.94052114 262.58378499 -82.625 264.0625 C-97.78784529 268.74352367 -112.31867857 271.32338194 -128.21875 271.23046875 C-129.52026001 271.23001053 -130.82177002 271.22955231 -132.16271973 271.2290802 C-134.8888094 271.22753288 -137.61476446 271.21937338 -140.34082031 271.20581055 C-143.82518802 271.18868709 -147.30941073 271.18500111 -150.79381561 271.18575573 C-154.14381301 271.18541828 -157.49376325 271.17658647 -160.84375 271.16796875 C-162.08958862 271.16685593 -163.33542725 271.1657431 -164.61901855 271.16459656 C-165.77792603 271.15821671 -166.9368335 271.15183685 -168.13085938 271.14526367 C-169.14643921 271.14145187 -170.16201904 271.13764008 -171.20837402 271.13371277 C-173.90497959 271.00455127 -176.37288189 270.60459421 -179 270 C-177 268 -177 268 -173.54760742 267.85229492 C-172.06667414 267.88653927 -170.58593459 267.92990231 -169.10546875 267.98046875 C-167.49415681 268.01064251 -165.8828277 268.03991078 -164.27148438 268.06835938 C-161.72988887 268.12406491 -159.18914948 268.18744814 -156.64819336 268.26733398 C-154.19636294 268.34008506 -151.74556658 268.38115021 -149.29296875 268.41796875 C-148.53759323 268.45004929 -147.78221771 268.48212982 -147.00395203 268.5151825 C-142.90106522 268.55445219 -141.2783761 268.24250558 -138.13525391 265.50439453 C-137.43062012 264.67794434 -136.72598633 263.85149414 -136 263 C-133.54296875 262.51171875 -133.54296875 262.51171875 -131.1875 262.6875 C-130.00220703 262.75517578 -130.00220703 262.75517578 -128.79296875 262.82421875 C-128.20128906 262.88222656 -127.60960937 262.94023438 -127 263 C-126.67 262.34 -126.34 261.68 -126 261 C-123.77856445 260.54516602 -123.77856445 260.54516602 -120.86328125 260.25390625 C-119.81076172 260.13853516 -118.75824219 260.02316406 -117.67382812 259.90429688 C-115.4526664 259.6784379 -113.23131402 259.45444534 -111.00976562 259.23242188 C-105.31511537 258.60507452 -101.04515385 257.85534239 -96 255 C-93.24246891 254.0453752 -90.43743038 253.2756703 -87.625 252.5 C-82.57164199 251.09124012 -77.65986752 249.54170389 -72.76318359 247.65576172 C-69.57295261 246.46925377 -66.31110925 245.76865036 -63 245 C-63 244.34 -63 243.68 -63 243 C-60.8765984 242.16260219 -58.7512272 241.33019717 -56.625 240.5 C-55.44164062 240.0359375 -54.25828125 239.571875 -53.0390625 239.09375 C-50 238 -50 238 -48 238 C-48 237.34 -48 236.68 -48 236 C-47.04222656 235.48953125 -46.08445312 234.9790625 -45.09765625 234.453125 C-20.40545778 221.72656693 -20.40545778 221.72656693 -2 202 C-1.89575471 199.45011716 -1.85220276 196.92715422 -1.85282898 194.37672424 C-1.84915229 193.58083938 -1.8454756 192.78495452 -1.8416875 191.96495193 C-1.83062574 189.2833502 -1.82680266 186.60178718 -1.82299805 183.92016602 C-1.81673542 182.00357947 -1.81008881 180.08699414 -1.80308533 178.17041016 C-1.78566026 172.95355562 -1.7751201 167.73671025 -1.7668798 162.5198338 C-1.7617343 159.26374415 -1.75565846 156.00765737 -1.74936867 152.75156975 C-1.73031494 142.57315128 -1.71608252 132.3947401 -1.7077567 122.21630722 C-1.69797361 110.449417 -1.67162691 98.68271436 -1.63125581 86.91589028 C-1.60115183 77.83137554 -1.58629339 68.74691475 -1.58297569 59.66235107 C-1.58061922 54.2312377 -1.57158128 48.80032468 -1.54651451 43.3692646 C-1.52332778 38.26308408 -1.51896247 33.15723717 -1.52927589 28.05101776 C-1.52977362 26.17363568 -1.52338407 24.29623768 -1.50971985 22.41890526 C-1.49214766 19.86228399 -1.49903356 17.30687931 -1.51225281 14.7502594 C-1.50128356 14.00162725 -1.49031432 13.25299509 -1.47901267 12.48167711 C-1.52871237 8.26521506 -1.52871237 8.26521506 -4.0304842 5.01560879 C-4.68042441 4.68045789 -5.33036463 4.34530699 -6 4 C-5.67 3.01 -5.34 2.02 -5 1 C-3 0 -3 0 0 0 Z " fill="#030D53" transform="translate(429,354)"/>
<path d="M0 0 C2.2749299 -0.00218743 4.54937391 -0.02042317 6.82421875 -0.03930664 C15.98516786 -0.0741717 24.90189566 0.31110668 33.91015625 2.18530273 C34.24015625 2.51530273 34.57015625 2.84530273 34.91015625 3.18530273 C37.71838824 3.46928125 40.5266226 3.63376938 43.34375 3.80639648 C45.91015625 4.18530273 45.91015625 4.18530273 47.91015625 6.18530273 C49.91012424 6.19661797 51.91017953 6.1949528 53.91015625 6.18530273 C60.46304581 7.84784422 66.72575355 10.42111577 72.84765625 13.26342773 C74.74269452 14.11045242 76.70096891 14.81208717 78.66015625 15.49780273 C93.44846481 20.93684266 106.49071368 30.73748232 118.91015625 40.18530273 C120.92564735 41.69247326 122.94623859 43.19285547 124.97265625 44.68530273 C125.85050781 45.33499023 126.72835938 45.98467773 127.6328125 46.65405273 C129.9136204 48.33474862 129.9136204 48.33474862 132.91015625 49.18530273 C132.91015625 48.19530273 132.91015625 47.20530273 132.91015625 46.18530273 C133.90015625 46.18530273 134.89015625 46.18530273 135.91015625 46.18530273 C135.79278605 53.11014462 135.79278605 53.11014462 133.53125 55.86499023 C130.38669648 58.35530779 128.79788928 59.18637229 124.66796875 59.18139648 C119.73277779 57.87321177 116.78816738 55.40542894 112.91015625 52.18530273 C96.79635503 39.38524088 78.51725675 29.56824864 58.91015625 23.18530273 C57.76740234 22.7927832 57.76740234 22.7927832 56.6015625 22.39233398 C15.24139566 8.27109851 -33.61783797 7.5965573 -74.96679688 22.42944336 C-76.98270709 23.14715932 -79.00858277 23.8190128 -81.04296875 24.48217773 C-97.15884663 29.91650708 -112.83900682 38.55682034 -126.08984375 49.18530273 C-127.34262826 50.16460401 -128.59662849 51.14235122 -129.8515625 52.11889648 C-133.27783639 54.79089774 -136.68731191 57.48314606 -140.08984375 60.18530273 C-140.58484375 58.70030273 -140.58484375 58.70030273 -141.08984375 57.18530273 C-139.77734375 55.68530273 -139.77734375 55.68530273 -138.08984375 54.18530273 C-137.09984375 54.18530273 -136.10984375 54.18530273 -135.08984375 54.18530273 C-134.84234375 53.60780273 -134.59484375 53.03030273 -134.33984375 52.43530273 C-131.78337068 47.83365122 -128.38591598 45.73140817 -123.82421875 43.25561523 C-121.18305318 41.62570675 -119.21573816 39.42611036 -117.08984375 37.18530273 C-113.41293268 34.08290902 -109.97158661 32.18530273 -105.08984375 32.18530273 C-104.59484375 30.70030273 -104.59484375 30.70030273 -104.08984375 29.18530273 C-101.54296875 27.83374023 -101.54296875 27.83374023 -98.33984375 26.56030273 C-97.293125 26.13491211 -96.24640625 25.70952148 -95.16796875 25.27124023 C-92.46259975 24.31680802 -89.91355514 23.6559213 -87.08984375 23.18530273 C-87.08984375 22.52530273 -87.08984375 21.86530273 -87.08984375 21.18530273 C-83.77993748 20.05257322 -80.46648473 18.93057574 -77.15234375 17.81030273 C-76.22615234 17.49319336 -75.29996094 17.17608398 -74.34570312 16.84936523 C-69.20337574 15.11721285 -64.23877184 13.6895311 -58.86499023 12.88598633 C-56.89793801 12.32175911 -56.89793801 12.32175911 -55.95288086 10.22412109 C-55.66807861 9.55131104 -55.38327637 8.87850098 -55.08984375 8.18530273 C-49.37117422 2.78718643 -39.89371059 1.98411099 -32.33984375 2.06030273 C-31.540625 2.09897461 -30.74140625 2.13764648 -29.91796875 2.17749023 C-29.3146875 2.18006836 -28.71140625 2.18264648 -28.08984375 2.18530273 C-27.75984375 1.85530273 -27.42984375 1.52530273 -27.08984375 1.18530273 C-18.15168313 -0.12597193 -9.01486299 -0.00096643 0 0 Z " fill="#204393" transform="translate(292.08984375,205.814697265625)"/>
<path d="M0 0 C1.65 0.66 3.3 1.32 5 2 C5.02333776 26.32995777 5.0409835 50.65991386 5.05181217 74.98988056 C5.05697326 86.28614488 5.06401241 97.58240225 5.07543945 108.87866211 C5.08539199 118.72196542 5.09185479 128.5652637 5.09408849 138.4085719 C5.09539463 143.62277835 5.09847437 148.83697041 5.10573006 154.05117226 C5.11249924 158.95532256 5.11461511 163.85945249 5.11310768 168.76360703 C5.1133836 170.56679965 5.11538341 172.36999294 5.11920547 174.17318153 C5.12415671 176.62881077 5.12299295 179.08436238 5.12025452 181.53999329 C5.12316736 182.25886209 5.1260802 182.9777309 5.12908131 183.71838361 C5.11986076 186.76265793 4.9712128 189.08636161 4 192 C1.734375 191.8359375 1.734375 191.8359375 -1 191 C-2.984375 188.6015625 -2.984375 188.6015625 -4.75 185.625 C-5.63945313 184.15933594 -5.63945313 184.15933594 -6.546875 182.6640625 C-8 180 -8 180 -9 177 C-9.66 177 -10.32 177 -11 177 C-12.74776911 174.63626365 -14.38547714 172.26521012 -16 169.8125 C-19.58243828 164.47938396 -23.23079842 159.25009269 -27.1875 154.1875 C-30.37784302 150.09365184 -33.54033692 145.98682438 -36.625 141.8125 C-37.27726562 140.93207031 -37.92953125 140.05164063 -38.6015625 139.14453125 C-40 137 -40 137 -40 135 C-40.66 135 -41.32 135 -42 135 C-42.93933665 133.64510427 -43.86817511 132.28204111 -44.75097656 130.88964844 C-47.23148532 127.136885 -50.09612036 123.65907411 -52.875 120.125 C-55.25630522 117.08819571 -57.63201585 114.04720426 -60 111 C-60.58813477 110.24686523 -61.17626953 109.49373047 -61.78222656 108.71777344 C-62.33104492 108.00395508 -62.87986328 107.29013672 -63.4453125 106.5546875 C-63.93789551 105.91772949 -64.43047852 105.28077148 -64.93798828 104.62451172 C-66 103 -66 103 -66 101 C-66.99 100.67 -67.98 100.34 -69 100 C-70.3125 97.6875 -70.3125 97.6875 -71 95 C-70.125 92.6875 -70.125 92.6875 -69 91 C-68.34 91 -67.68 91 -67 91 C-66.7525 90.278125 -66.505 89.55625 -66.25 88.8125 C-64.86693509 85.70060396 -63.20877083 83.58741726 -61 81 C-57.56056928 76.89255785 -54.20057433 72.74893934 -50.9375 68.5 C-50.52097168 67.96020508 -50.10444336 67.42041016 -49.67529297 66.86425781 C-46.22578651 62.36466713 -42.97475835 57.73730378 -39.7890625 53.046875 C-37.85261154 50.83137216 -36.87628248 50.32944205 -34 50 C-34.59874358 53.05392677 -35.51549172 55.00771909 -37.40625 57.46875 C-37.89883301 58.11714844 -38.39141602 58.76554687 -38.89892578 59.43359375 C-39.69145752 60.45646484 -39.69145752 60.45646484 -40.5 61.5 C-41.5914247 62.92687007 -42.68256762 64.35395572 -43.7734375 65.78125 C-44.31709961 66.48894531 -44.86076172 67.19664062 -45.42089844 67.92578125 C-46.87907399 69.84115841 -48.30939847 71.77291941 -49.7265625 73.71875 C-50.13455078 74.27626953 -50.54253906 74.83378906 -50.96289062 75.40820312 C-52.06375283 76.91610682 -53.16089364 78.42672531 -54.2578125 79.9375 C-54.83273437 80.618125 -55.40765625 81.29875 -56 82 C-56.66 82 -57.32 82 -58 82 C-58.28875 82.763125 -58.5775 83.52625 -58.875 84.3125 C-60 87 -60 87 -62 90 C-62.24187651 92.74518321 -62.24187651 92.74518321 -62.125 95.6875 C-62.09792969 97.17830078 -62.09792969 97.17830078 -62.0703125 98.69921875 C-62.04710937 99.45847656 -62.02390625 100.21773438 -62 101 C-60.68 101 -59.36 101 -58 101 C-58 101.99 -58 102.98 -58 104 C-58.66 104 -59.32 104 -60 104 C-59.60167969 104.51949219 -59.20335937 105.03898437 -58.79296875 105.57421875 C-54.28929605 111.5024108 -54.28929605 111.5024108 -52.4375 114.6875 C-50.65733459 117.55124436 -48.40846284 119.65491776 -46 122 C-45.505 122.99 -45.505 122.99 -45 124 C-44.236875 124.45375 -43.47375 124.9075 -42.6875 125.375 C-40.01605453 126.99029261 -38.11790496 128.72521319 -36 131 C-36.1966363 126.20922466 -38.44987524 124.26664931 -41.7578125 121.18359375 C-43.00691933 120.05730705 -44.2595596 118.93492729 -45.515625 117.81640625 C-47.166868 116.27063912 -48.67513282 114.83425378 -50 113 C-49.8984375 110.09375 -49.8984375 110.09375 -49 108 C-48.67 108 -48.34 108 -48 108 C-47.87625 109.175625 -47.87625 109.175625 -47.75 110.375 C-47.5025 111.24125 -47.255 112.1075 -47 113 C-45.6846659 113.70151152 -44.34882408 114.36525925 -43 115 C-42.525625 115.804375 -42.05125 116.60875 -41.5625 117.4375 C-39.75504087 120.40173298 -37.97038778 121.31410424 -35 123 C-35 123.66 -35 124.32 -35 125 C-34.01 125 -33.02 125 -32 125 C-32 125.66 -32 126.32 -32 127 C-31.34 127.495 -30.68 127.99 -30 128.5 C-29.34 128.995 -28.68 129.49 -28 130 C-28 130.66 -28 131.32 -28 132 C-27.34 132 -26.68 132 -26 132 C-26.33 132.66 -26.66 133.32 -27 134 C-26.34 134.99 -25.68 135.98 -25 137 C-24.01 137 -23.02 137 -22 137 C-20.37426758 138.25341797 -20.37426758 138.25341797 -18.64453125 139.9921875 C-18.02255859 140.61480469 -17.40058594 141.23742187 -16.75976562 141.87890625 C-16.11716797 142.53761719 -15.47457031 143.19632813 -14.8125 143.875 C-13.83120117 144.85146484 -13.83120117 144.85146484 -12.83007812 145.84765625 C-8 150.73313673 -8 150.73313673 -8 153 C-5.1575146 154.57273568 -5.1575146 154.57273568 -2 155 C-2.00523682 153.98276855 -2.01047363 152.96553711 -2.01586914 151.91748047 C-2.03423068 148.07439078 -2.04554352 144.2313048 -2.05493164 140.38818359 C-2.05990175 138.7377863 -2.06668017 137.08739326 -2.07543945 135.43701172 C-2.08783181 133.03872616 -2.09330143 130.64049969 -2.09765625 128.2421875 C-2.10281754 127.52698944 -2.10797882 126.81179138 -2.11329651 126.07492065 C-2.1139092 120.23697721 -1.69298724 114.45783733 -1.2545929 108.63803101 C0.28832603 86.59033455 0.13688479 64.4335769 0.06866455 42.3449707 C0.05815982 38.56201779 0.05381085 34.77905725 0.04882812 30.99609375 C0.0383214 23.66404305 0.02141653 16.33202786 0 9 C-0.99 9.33 -1.98 9.66 -3 10 C-3 9.34 -3 8.68 -3 8 C-3.99 7.505 -3.99 7.505 -5 7 C-4.319375 6.38125 -4.319375 6.38125 -3.625 5.75 C-1.94049626 3.93591905 -1.00734029 2.24714373 0 0 Z " fill="#275697" transform="translate(542,213)"/>
<path d="M0 0 C-1 2 -1 2 -2.73413086 2.59423828 C-3.47026611 2.75134277 -4.20640137 2.90844727 -4.96484375 3.0703125 C-6.16463867 3.33134766 -6.16463867 3.33134766 -7.38867188 3.59765625 C-8.22978516 3.77167969 -9.07089844 3.94570312 -9.9375 4.125 C-10.77474609 4.30675781 -11.61199219 4.48851562 -12.47460938 4.67578125 C-18.66259398 6 -18.66259398 6 -21 6 C-21 6.66 -21 7.32 -21 8 C-26.29437182 10.15541619 -31.57640476 12.19213492 -37 14 C-55.41735908 20.78184342 -77.4673494 31.74924602 -89.9375 47.4375 C-93.42432658 51.76961788 -97.80404133 55.15539472 -102.05078125 58.72265625 C-108.7128228 64.40156157 -114.16102588 70.72968989 -119.31640625 77.78515625 C-122.11596952 81.4681084 -125.14310999 84.96512059 -128.14453125 88.484375 C-129.90061201 90.8652508 -130.42452327 92.18855637 -131 95 C-132.17132527 96.37212388 -133.34471681 97.74256809 -134.53125 99.1015625 C-139.11952204 105.03214817 -142.25886647 111.74527695 -144 119 C-144.90410779 121.42978967 -145.84676743 123.71156222 -147.0625 126 C-148.10679259 127.99014718 -148.10679259 127.99014718 -148.375 130.3125 C-149 133 -149 133 -150.9375 136.1875 C-153.55918706 140.52848184 -154.19732041 145.05676529 -155 150 C-155.32881541 151.66756389 -155.66217015 153.33423895 -156 155 C-156.15339844 155.81339844 -156.30679688 156.62679687 -156.46484375 157.46484375 C-157.35621151 162.12794946 -158.4683859 166.50088358 -160 171 C-161.98987598 178.06769651 -162.42186787 184.9716832 -162.6171875 192.28515625 C-162.65472137 193.52225845 -162.69225525 194.75936066 -162.73092651 196.03395081 C-163.21198691 213.21727457 -163.15069169 230.41289164 -163.13037109 247.60131836 C-163.1245817 252.52447793 -163.12802876 257.44758407 -163.13394356 262.37074184 C-163.13755315 266.20459906 -163.13641033 270.0384435 -163.13381577 273.8723011 C-163.13315236 275.68992176 -163.13395424 277.50754361 -163.13629532 279.32516289 C-163.13883851 281.84498078 -163.13496194 284.36471019 -163.12939453 286.88452148 C-163.13141876 287.62155304 -163.13344299 288.35858459 -163.13552856 289.11795044 C-163.118896 293.18761246 -162.7493038 297.0033137 -162 301 C-161.90315164 304.44459617 -162.089255 307.87109565 -162.25 311.3125 C-162.29060547 312.66118164 -162.29060547 312.66118164 -162.33203125 314.03710938 C-162.57545523 319.46703459 -163.40537407 323.97474122 -165.46777344 329.01635742 C-166.10152665 331.37839634 -165.61307525 332.67446948 -165 335 C-166.4375 337.25 -166.4375 337.25 -168 339 C-169.01321737 335.64692766 -169.1195612 332.607844 -169.10920715 329.11325073 C-169.1079483 327.90844559 -169.10668945 326.70364044 -169.10539246 325.46232605 C-169.0953997 323.48333061 -169.0953997 323.48333061 -169.08520508 321.46435547 C-169.08160743 320.05769441 -169.07840288 318.6510323 -169.07556152 317.24436951 C-169.06618504 313.41857011 -169.04983713 309.59283285 -169.03119111 305.76706839 C-169.0195227 303.36542759 -169.0088635 300.96378415 -168.99844933 298.5621376 C-168.96516999 291.01648168 -168.92713646 283.47086879 -168.88308412 275.92526805 C-168.83272623 267.27786651 -168.79824949 258.63059995 -168.77790338 249.98307693 C-168.76104413 243.26577658 -168.72894027 236.54864792 -168.68605727 229.83146393 C-168.66090526 225.8377737 -168.64167985 221.84429459 -168.63868141 217.85052109 C-168.5958205 177.98494934 -162.91250802 137.23316045 -143 102 C-142.59942383 101.28537598 -142.19884766 100.57075195 -141.78613281 99.83447266 C-135.24016937 88.30027504 -127.64800116 78.03602647 -119 68 C-118.29617187 67.17757812 -117.59234375 66.35515625 -116.8671875 65.5078125 C-115.77340751 64.24726785 -114.67167111 62.9935378 -113.55859375 61.75 C-112.38594831 60.43334547 -111.23602138 59.09640311 -110.09765625 57.75 C-109.46730469 57.0075 -108.83695313 56.265 -108.1875 55.5 C-107.62417969 54.8296875 -107.06085938 54.159375 -106.48046875 53.46875 C-105 52 -105 52 -103 52 C-102.67 51.01 -102.34 50.02 -102 49 C-99.84765625 47.01953125 -99.84765625 47.01953125 -97.0625 44.8125 C-96.06476563 44.01714844 -95.06703125 43.22179688 -94.0390625 42.40234375 C-93.03617187 41.60957031 -92.03328125 40.81679688 -91 40 C-90.14148438 39.30003906 -89.28296875 38.60007813 -88.3984375 37.87890625 C-70.60384567 23.38902434 -25.1334302 -8.10755813 0 0 Z " fill="#0E2065" transform="translate(247,4)"/>
<path d="M0 0 C1.76462683 3.08809695 2 4.23312136 2 8 C1.34 8 0.68 8 0 8 C0.01740942 9.55824997 0.01740942 9.55824997 0.03517056 11.14797974 C0.31599275 36.42809125 0.55619412 61.70834019 0.75383663 86.98924255 C0.85035529 99.21493981 0.96005742 111.44025295 1.10083008 123.66552734 C1.22349805 134.32142432 1.32139534 144.97721216 1.38958651 155.63360214 C1.42655628 161.27591095 1.47590121 166.91749751 1.55491447 172.55938721 C1.62891881 177.87156886 1.66975667 183.18298122 1.68535233 188.49564552 C1.69688228 190.44359208 1.72044852 192.39151102 1.75706291 194.33914757 C2.05697413 210.89324172 2.05697413 210.89324172 -2.36839294 216.10375977 C-5.14042005 218.57419692 -8.073706 220.53556985 -11.4375 222.125 C-19.92990281 226.188552 -19.92990281 226.188552 -26 233 C-27.66067693 233.68145019 -29.32843853 234.34570308 -31 235 C-32.6041053 236.00938599 -34.18619398 237.0542411 -35.75 238.125 C-43.09511114 242.89832154 -51.00530206 246.46330406 -59 250 C-59.91007812 250.40605469 -60.82015625 250.81210937 -61.7578125 251.23046875 C-64 252 -64 252 -68 252 C-68 252.66 -68 253.32 -68 254 C-76.38534244 258.69356557 -85.23373449 262.33799462 -95 262 C-95 262.66 -95 263.32 -95 264 C-101.81097549 265.26029861 -108.62816975 266.44606387 -115.46875 267.53515625 C-118.11145928 267.95955642 -118.11145928 267.95955642 -121 269 C-120.34 269.66 -119.68 270.32 -119 271 C-126.7412852 271.02535676 -134.48255969 271.04286976 -142.22387695 271.05493164 C-144.85734457 271.05996013 -147.49080939 271.06678375 -150.12426758 271.07543945 C-153.90967498 271.08756988 -157.69504546 271.09324318 -161.48046875 271.09765625 C-162.65772018 271.10281754 -163.83497162 271.10797882 -165.04789734 271.11329651 C-166.69904289 271.11340981 -166.69904289 271.11340981 -168.38354492 271.11352539 C-169.34951096 271.115746 -170.31547699 271.11796661 -171.31071472 271.12025452 C-173.9718515 271.00125869 -176.40726491 270.59468968 -179 270 C-177 268 -177 268 -173.54760742 267.85229492 C-172.06667414 267.88653927 -170.58593459 267.92990231 -169.10546875 267.98046875 C-167.49415681 268.01064251 -165.8828277 268.03991078 -164.27148438 268.06835938 C-161.72988887 268.12406491 -159.18914948 268.18744814 -156.64819336 268.26733398 C-154.19636294 268.34008506 -151.74556658 268.38115021 -149.29296875 268.41796875 C-148.53759323 268.45004929 -147.78221771 268.48212982 -147.00395203 268.5151825 C-142.90106522 268.55445219 -141.2783761 268.24250558 -138.13525391 265.50439453 C-137.43062012 264.67794434 -136.72598633 263.85149414 -136 263 C-133.54296875 262.51171875 -133.54296875 262.51171875 -131.1875 262.6875 C-130.00220703 262.75517578 -130.00220703 262.75517578 -128.79296875 262.82421875 C-128.20128906 262.88222656 -127.60960937 262.94023438 -127 263 C-126.67 262.34 -126.34 261.68 -126 261 C-123.77856445 260.54516602 -123.77856445 260.54516602 -120.86328125 260.25390625 C-119.81076172 260.13853516 -118.75824219 260.02316406 -117.67382812 259.90429688 C-115.4526664 259.6784379 -113.23131402 259.45444534 -111.00976562 259.23242188 C-105.31511537 258.60507452 -101.04515385 257.85534239 -96 255 C-93.24246891 254.0453752 -90.43743038 253.2756703 -87.625 252.5 C-82.57164199 251.09124012 -77.65986752 249.54170389 -72.76318359 247.65576172 C-69.57295261 246.46925377 -66.31110925 245.76865036 -63 245 C-63 244.34 -63 243.68 -63 243 C-60.8765984 242.16260219 -58.7512272 241.33019717 -56.625 240.5 C-55.44164062 240.0359375 -54.25828125 239.571875 -53.0390625 239.09375 C-50 238 -50 238 -48 238 C-48 237.34 -48 236.68 -48 236 C-47.04222656 235.48953125 -46.08445312 234.9790625 -45.09765625 234.453125 C-20.40545778 221.72656693 -20.40545778 221.72656693 -2 202 C-1.89575471 199.45011716 -1.85220276 196.92715422 -1.85282898 194.37672424 C-1.84915229 193.58083938 -1.8454756 192.78495452 -1.8416875 191.96495193 C-1.83062574 189.2833502 -1.82680266 186.60178718 -1.82299805 183.92016602 C-1.81673542 182.00357947 -1.81008881 180.08699414 -1.80308533 178.17041016 C-1.78566026 172.95355562 -1.7751201 167.73671025 -1.7668798 162.5198338 C-1.7617343 159.26374415 -1.75565846 156.00765737 -1.74936867 152.75156975 C-1.73031494 142.57315128 -1.71608252 132.3947401 -1.7077567 122.21630722 C-1.69797361 110.449417 -1.67162691 98.68271436 -1.63125581 86.91589028 C-1.60115183 77.83137554 -1.58629339 68.74691475 -1.58297569 59.66235107 C-1.58061922 54.2312377 -1.57158128 48.80032468 -1.54651451 43.3692646 C-1.52332778 38.26308408 -1.51896247 33.15723717 -1.52927589 28.05101776 C-1.52977362 26.17363568 -1.52338407 24.29623768 -1.50971985 22.41890526 C-1.49214766 19.86228399 -1.49903356 17.30687931 -1.51225281 14.7502594 C-1.50128356 14.00162725 -1.49031432 13.25299509 -1.47901267 12.48167711 C-1.52871237 8.26521506 -1.52871237 8.26521506 -4.0304842 5.01560879 C-4.68042441 4.68045789 -5.33036463 4.34530699 -6 4 C-5.67 3.01 -5.34 2.02 -5 1 C-3 0 -3 0 0 0 Z " fill="#102175" transform="translate(429,354)"/>
<path d="M0 0 C-2.53303882 3.19383155 -4.7488343 4.37577607 -8.5625 5.5 C-12.38541362 6.64126133 -13.80739892 7.60146833 -16 11 C-18.93840447 12.46920223 -20.69747512 13 -24 13 C-24 13.66 -24 14.32 -24 15 C-25.42578125 16.2890625 -25.42578125 16.2890625 -27.3125 17.625 C-27.92738281 18.07101563 -28.54226562 18.51703125 -29.17578125 18.9765625 C-31 20 -31 20 -34 20 C-34.495 21.485 -34.495 21.485 -35 23 C-36.98600337 24.3540932 -38.98817543 25.68457624 -41 27 C-41.86625 27.886875 -42.7325 28.77375 -43.625 29.6875 C-46.0215715 32.02100383 -46.8990552 32.33551183 -50 33 C-50.33 33.99 -50.66 34.98 -51 36 C-53.4107717 38.67863522 -55.53207202 40.7388309 -58.6875 42.5 C-61.1784631 43.78488161 -61.1784631 43.78488161 -61.8125 46.25 C-63.3823526 49.88544814 -65.73757855 51.55712533 -68.734375 54.07421875 C-80.44535766 64.02855401 -89.36523355 76.38954415 -97.93359375 89.03515625 C-99.79657515 91.70812956 -101.75336306 94.22744795 -103.8125 96.75 C-106.57167594 100.22286579 -108.4359487 103.64853188 -110.078125 107.76171875 C-111 110 -111 110 -112.39453125 112.65234375 C-114.84422578 117.76034428 -116.51607529 123.11279648 -118.30664062 128.48046875 C-119.67817873 132.50649821 -121.09542417 136.33580754 -123.08203125 140.1015625 C-125.16863889 144.10530712 -126.25880672 148.11275104 -127.25 152.5 C-127.42273438 153.22703125 -127.59546875 153.9540625 -127.7734375 154.703125 C-128.19112203 156.46668192 -128.59686338 158.23306077 -129 160 C-129.33 160 -129.66 160 -130 160 C-130.43414279 147.96459702 -129.09007155 136.973401 -124 126 C-123.28070313 124.43765625 -123.28070313 124.43765625 -122.546875 122.84375 C-121.51814025 120.62002034 -120.48430563 118.39864267 -119.4453125 116.1796875 C-118.16095325 113.35409716 -116.99237353 110.51961331 -115.875 107.625 C-114.73994825 104.7096596 -113.52241329 102.009843 -111.9375 99.3125 C-109.94194558 96.06068472 -109.94194558 96.06068472 -108.5625 92.625 C-103.42857143 80.71428571 -103.42857143 80.71428571 -100 79 C-99.73058594 78.278125 -99.46117188 77.55625 -99.18359375 76.8125 C-97.71761363 73.32898287 -95.53242095 70.80083991 -93.0625 68 C-92.06213067 66.84537197 -91.06214115 65.69041478 -90.0625 64.53515625 C-89.55203125 63.94879395 -89.0415625 63.36243164 -88.515625 62.75830078 C-87.07200112 61.08352965 -85.65610378 59.38991694 -84.25 57.68359375 C-75.69031524 47.31622543 -66.43255844 36.27992511 -55 29 C-54.34 29 -53.68 29 -53 29 C-52.68482422 28.15115234 -52.68482422 28.15115234 -52.36328125 27.28515625 C-50.53353713 24.21810665 -48.05815859 22.45605874 -45.1875 20.4375 C-44.28499512 19.79820557 -44.28499512 19.79820557 -43.36425781 19.14599609 C-13.38597309 -1.4090498 -13.38597309 -1.4090498 0 0 Z " fill="#529DDA" transform="translate(213,219)"/>
<path d="M0 0 C0.99 0.495 0.99 0.495 2 1 C2 1.66 2 2.32 2 3 C2.60328125 3.2475 3.2065625 3.495 3.828125 3.75 C6.35722953 5.20559973 7.26772507 6.51124209 8.75 9 C9.17796875 9.70125 9.6059375 10.4025 10.046875 11.125 C11 13 11 13 11 15 C11.66 15 12.32 15 13 15 C14.9453125 17.30078125 14.9453125 17.30078125 17.125 20.3125 C17.84945312 21.29863281 18.57390625 22.28476562 19.3203125 23.30078125 C21 26 21 26 21 29 C21.54140625 29.20367188 22.0828125 29.40734375 22.640625 29.6171875 C25.94540621 31.55409569 28.23385755 34.29069707 30.75 37.125 C31.82576212 38.31085901 32.90258413 39.49575741 33.98046875 40.6796875 C34.50044434 41.25299805 35.02041992 41.82630859 35.55615234 42.41699219 C41.84113632 49.30773215 48.68135824 55.22838821 56 61 C57.30324219 62.06347656 57.30324219 62.06347656 58.6328125 63.1484375 C71.95369897 73.66093195 87.21945853 81.85173709 103 88 C104.36511719 88.58007812 104.36511719 88.58007812 105.7578125 89.171875 C110.54814171 91.19348182 115.03017143 92.57573878 120.1875 93.3125 C122 94 122 94 123.25 96.0625 C123.4975 96.701875 123.745 97.34125 124 98 C125.65 98 127.3 98 129 98 C129 98.99 129 99.98 129 101 C124.51126214 103.24436893 119.57887198 102.50931354 114.97265625 101.0234375 C112.7720421 100.15386148 110.57953549 99.2635555 108.39453125 98.35546875 C105.10572189 97.04221576 101.84217269 96.0288562 98.4375 95.0625 C91.70583562 93.05036217 83.51920918 90.52807369 78.44921875 85.4453125 C76.62279077 83.62380751 74.8181143 82.90621785 72.4375 81.9375 C69.67525309 80.80810841 68.13254655 80.13254655 66 78 C63.42938689 77.35232207 63.42938689 77.35232207 61 77 C60.67 76.01 60.34 75.02 60 74 C57.3344497 72.04526312 54.80697782 70.33624076 51.75 69.0625 C50 68 50 68 49.1640625 65.6953125 C47.79686994 62.52966529 46.22841395 61.04832228 43.625 58.8125 C42.85414063 58.13832031 42.08328125 57.46414063 41.2890625 56.76953125 C39.10873243 54.96458755 39.10873243 54.96458755 36.8046875 53.91015625 C34.17926326 52.58607866 33.43871858 50.51775751 32 48 C29.68868467 45.29018203 28.11753133 44.05069979 24.8125 42.625 C23.884375 42.08875 22.95625 41.5525 22 41 C21.855625 40.0925 21.71125 39.185 21.5625 38.25 C20.81445107 33.92793953 18.72697491 32.56661802 15.58984375 29.6796875 C13.60086985 27.57831459 13.08720227 25.87767477 13 23 C12.01 23 11.02 23 10 23 C6.26688633 15.69686985 6.26688633 15.69686985 4.875 12.0625 C4.18843441 9.8239113 4.18843441 9.8239113 2 9 C1.3671875 6.93359375 1.3671875 6.93359375 0.875 4.4375 C0.70742187 3.61121094 0.53984375 2.78492188 0.3671875 1.93359375 C0.24601562 1.29550781 0.12484375 0.65742188 0 0 Z " fill="#3F8BD0" transform="translate(105,511)"/>
<path d="M0 0 C4.32042601 4.10440471 7.57522632 8.8384641 10.8125 13.8125 C16.58884991 22.38663303 23.80001288 29.62591647 31 37 C31.94583917 37.98517171 32.89120867 38.97079473 33.8359375 39.95703125 C39.20941262 45.47459009 44.90324165 50.30490796 51 55 C52.10988281 55.91072266 52.10988281 55.91072266 53.2421875 56.83984375 C58.02769531 60.73126202 62.936296 63.75040287 68.3984375 66.609375 C70.58325825 67.77723714 72.62361466 69.01119912 74.6875 70.375 C86.02675928 77.58452905 98.71821615 83.46133062 111.83203125 86.4453125 C114.46102889 87.11795694 116.99100573 88.00775095 119.5625 88.875 C125.83617936 90.83414899 132.15320518 92.0614732 138.625 93.1875 C139.57834229 93.35427246 140.53168457 93.52104492 141.51391602 93.69287109 C147.99059033 94.777239 154.4535562 95.49416016 161 96 C160.01 96.495 160.01 96.495 159 97 C159 97.66 159 98.32 159 99 C149.34626576 99.41090514 140.60295658 98.26076295 131.1875 96.1875 C129.3012793 95.79594727 129.3012793 95.79594727 127.37695312 95.39648438 C120.98641663 94.03357375 115.07219623 92.38385021 109 90 C106.50738086 89.40564649 104.00690004 88.84340342 101.5 88.3125 C92.60038747 86.25534019 84.96655712 82.36558173 77 78 C75.6696875 77.29810547 75.6696875 77.29810547 74.3125 76.58203125 C66.18082471 72.21972628 58.75310313 66.86781582 51.3125 61.4375 C50.68263184 60.97843262 50.05276367 60.51936523 49.40380859 60.04638672 C45.4822849 57.16233596 41.62248634 54.25522966 38 51 C38 50.34 38 49.68 38 49 C37.443125 48.938125 36.88625 48.87625 36.3125 48.8125 C30.27482243 46.69115383 26.14945975 39.56763264 22.28125 34.71875 C19.53394839 31.44456863 16.5816154 28.45508617 13.4375 25.5625 C8 19.65217391 8 19.65217391 8 16 C7.34 16 6.68 16 6 16 C5.54625 15.21625 5.0925 14.4325 4.625 13.625 C2.92348887 10.8764051 1.95480916 10.12078968 -1 9 C-1.125 2.25 -1.125 2.25 0 0 Z " fill="#060E52" transform="translate(112,314)"/>
<path d="M0 0 C19.56012034 -0.88462856 41.33737015 0.63705662 59.625 8.06640625 C61.82027577 8.92935182 63.81369319 9.4443763 66.125 9.875 C73.84153698 11.51106043 80.99647525 14.41282879 88 18 C90.23525035 18.68636625 90.23525035 18.68636625 92 19 C92 19.99 92 20.98 92 22 C92.99 21.67 93.98 21.34 95 21 C95.99 22.485 95.99 22.485 97 24 C98.65522843 24.69457978 100.32377958 25.35773267 102 26 C103.7174861 27.12205564 105.40512939 28.29091356 107.0625 29.5 C109.96461902 31.61063201 112.73856835 33.49356506 116 35 C116 35.66 116 36.32 116 37 C117.65 37.33 119.3 37.66 121 38 C121 38.66 121 39.32 121 40 C123.39068734 41.10636395 123.39068734 41.10636395 126 42 C126.66 41.67 127.32 41.34 128 41 C128.33 41.99 128.66 42.98 129 44 C132.3 43.67 135.6 43.34 139 43 C139 44.32 139 45.64 139 47 C135.881013 49.81469559 134.03005288 51.00625792 129.78515625 50.98046875 C124.82116569 49.69464663 121.89320108 47.23273926 118 44 C101.88619878 31.19993814 83.6071005 21.3829459 64 15 C63.23816406 14.73832031 62.47632813 14.47664062 61.69140625 14.20703125 C34.01111957 4.75639611 7.00241382 3.89945234 -22 4 C-22 3.67 -22 3.34 -22 3 C-11.11 2.01 -11.11 2.01 0 1 C0 0.67 0 0.34 0 0 Z " fill="#091A62" transform="translate(287,214)"/>
<path d="M0 0 C0.33 0 0.66 0 1 0 C1.15388124 15.72457438 1.30191507 31.44919219 1.4429636 47.1738863 C1.50858972 54.47492149 1.57613838 61.77592949 1.64819336 69.0769043 C1.71098228 75.43948689 1.77018403 81.80209095 1.82505554 88.16474694 C1.85424272 91.53456446 1.88524147 94.9043436 1.92053413 98.27410316 C1.95900533 102.03337791 1.99113605 105.79265602 2.02172852 109.55200195 C2.03467453 110.67265549 2.04762054 111.79330902 2.06095886 112.94792175 C2.06799835 113.97015839 2.07503784 114.99239502 2.08229065 116.04560852 C2.09058679 116.93513875 2.09888292 117.82466898 2.10743046 118.74115467 C2 121 2 121 1 124 C-1.265625 123.8359375 -1.265625 123.8359375 -4 123 C-5.984375 120.6015625 -5.984375 120.6015625 -7.75 117.625 C-8.34296875 116.64789063 -8.9359375 115.67078125 -9.546875 114.6640625 C-11 112 -11 112 -12 109 C-12.66 109 -13.32 109 -14 109 C-15.74776943 106.63626322 -17.38560794 104.26529949 -19 101.8125 C-22.61397038 96.42717512 -26.3076133 91.1645315 -30.3125 86.0625 C-34.12478931 81.1861746 -37.67986719 76.22313576 -41 71 C-38.68359375 70.78515625 -38.68359375 70.78515625 -36 71 C-34.41015625 72.43359375 -34.41015625 72.43359375 -33.0625 74.4375 C-32.56621094 75.16066406 -32.06992187 75.88382812 -31.55859375 76.62890625 C-31.04425781 77.41136719 -30.52992188 78.19382812 -30 79 C-29.43410156 79.81339844 -28.86820313 80.62679687 -28.28515625 81.46484375 C-24 87.68588235 -24 87.68588235 -24 90 C-23.195625 90.28875 -22.39125 90.5775 -21.5625 90.875 C-19 92 -19 92 -18 94 C-15.97536745 94.65213292 -15.97536745 94.65213292 -14 95 C-13.67 96.32 -13.34 97.64 -13 99 C-12.01 98.01 -12.01 98.01 -11 97 C-10.67 97.99 -10.34 98.98 -10 100 C-9.34 100.33 -8.68 100.66 -8 101 C-7.5859375 103.28515625 -7.5859375 103.28515625 -7.375 106.0625 C-7.30023437 106.98160156 -7.22546875 107.90070313 -7.1484375 108.84765625 C-7.09945312 109.55792969 -7.05046875 110.26820313 -7 111 C-5.68 111 -4.36 111 -3 111 C-3.00222061 110.17632935 -3.00444122 109.35265869 -3.00672913 108.50402832 C-3.02702435 100.62365336 -3.04211975 92.74328755 -3.05181217 84.86289215 C-3.05696309 80.81450762 -3.06391303 76.76614523 -3.07543945 72.71777344 C-3.1610322 41.79461065 -3.1610322 41.79461065 -2.55859375 26.78125 C-2.51960464 25.78532837 -2.48061554 24.78940674 -2.44044495 23.76330566 C-2.13018791 17.13018791 -2.13018791 17.13018791 -1 16 C-0.76321284 13.30764224 -0.57801975 10.63501844 -0.4375 7.9375 C-0.37272461 6.79958008 -0.37272461 6.79958008 -0.30664062 5.63867188 C-0.20026367 3.75934562 -0.09960066 1.87969756 0 0 Z " fill="#0B2460" transform="translate(545,281)"/>
<path d="M0 0 C0.59780273 0.20810303 1.19560547 0.41620605 1.81152344 0.63061523 C1.97503746 26.06483316 2.09848102 51.49897232 2.17420864 76.93360996 C2.21030478 88.74335359 2.25951763 100.55277066 2.33959961 112.36230469 C2.40936504 122.65538419 2.45452994 132.94822719 2.4701429 143.24153656 C2.47926969 148.69202349 2.50072174 154.14183385 2.55163383 159.59210396 C2.59917437 164.72304729 2.61379877 169.85303589 2.60327721 174.98417854 C2.60520178 176.86637054 2.6191108 178.74859471 2.64596176 180.63059616 C2.83893696 194.85500009 2.83893696 194.85500009 0.28830147 199.26310539 C-1.45234035 201.03727107 -3.08413404 202.3261706 -5.18847656 203.63061523 C-6.01992188 204.35249023 -6.85136719 205.07436523 -7.70800781 205.81811523 C-16.19731172 212.52857011 -24.88393712 218.54703937 -34.18847656 224.06811523 C-34.94330322 224.51783691 -35.69812988 224.96755859 -36.47583008 225.4309082 C-37.18537842 225.84614746 -37.89492676 226.26138672 -38.62597656 226.68920898 C-39.2640625 227.06360107 -39.90214844 227.43799316 -40.55957031 227.82373047 C-42.18847656 228.63061523 -42.18847656 228.63061523 -44.18847656 228.63061523 C-44.18847656 229.29061523 -44.18847656 229.95061523 -44.18847656 230.63061523 C-46.12315599 231.47047607 -48.06132785 232.3022955 -50.00097656 233.13061523 C-51.07992187 233.59467773 -52.15886719 234.05874023 -53.27050781 234.53686523 C-56.18847656 235.63061523 -56.18847656 235.63061523 -59.18847656 235.63061523 C-59.18847656 236.29061523 -59.18847656 236.95061523 -59.18847656 237.63061523 C-71.93811799 242.47430118 -84.79780286 247.09095988 -98.12597656 250.06811523 C-99.21531494 250.31356079 -99.21531494 250.31356079 -100.32666016 250.56396484 C-104.34040464 251.4100316 -108.08996307 251.79096396 -112.18847656 251.63061523 C-112.18847656 251.30061523 -112.18847656 250.97061523 -112.18847656 250.63061523 C-111.55345215 250.45933105 -110.91842773 250.28804687 -110.26416016 250.11157227 C-107.3634393 249.3280655 -104.46345528 248.54186419 -101.56347656 247.75561523 C-100.56445312 247.48620117 -99.56542969 247.21678711 -98.53613281 246.93920898 C-93.70168141 245.62654337 -88.93331226 244.24264275 -84.18847656 242.63061523 C-83.01285156 242.44499023 -83.01285156 242.44499023 -81.81347656 242.25561523 C-78.69077007 241.51211369 -76.21158145 240.16050508 -73.37988281 238.67749023 C-70.39763897 237.2528176 -67.32920363 236.29242692 -64.16894531 235.34155273 C-61.91469001 234.62211782 -61.91469001 234.62211782 -59.18847656 232.63061523 C-58.30160156 232.34186523 -57.41472656 232.05311523 -56.50097656 231.75561523 C-49.86301226 229.50121226 -43.84237285 225.92894296 -37.75097656 222.50561523 C-37.12320313 222.1567627 -36.49542969 221.80791016 -35.84863281 221.44848633 C-32.43228675 219.64222613 -32.43228675 219.64222613 -30.18847656 216.63061523 C-29.19847656 216.63061523 -28.20847656 216.63061523 -27.18847656 216.63061523 C-27.18847656 215.97061523 -27.18847656 215.31061523 -27.18847656 214.63061523 C-26.52847656 214.63061523 -25.86847656 214.63061523 -25.18847656 214.63061523 C-25.18847656 213.97061523 -25.18847656 213.31061523 -25.18847656 212.63061523 C-24.41503906 212.27870117 -23.64160156 211.92678711 -22.84472656 211.56420898 C-14.58651647 207.64973564 -6.18191626 203.32221927 -2.18847656 194.63061523 C-1.49268202 192.43930989 -1.49268202 192.43930989 -1.18847656 190.63061523 C-0.52847656 190.63061523 0.13152344 190.63061523 0.81152344 190.63061523 C0.64900369 189.47139809 0.48648394 188.31218094 0.31903934 187.117836 C-0.19081221 183.01847469 -0.32649076 178.96318566 -0.30873108 174.83508301 C-0.3095855 174.09320818 -0.31043993 173.35133336 -0.31132025 172.58697748 C-0.3129551 170.12428455 -0.30748664 167.66166116 -0.30200195 165.19897461 C-0.30171962 163.42441815 -0.30187871 161.64986157 -0.30244446 159.87530518 C-0.30273065 155.07426883 -0.29686273 150.27325762 -0.2898705 145.4722271 C-0.28360728 140.4487305 -0.28303082 135.42523329 -0.28184509 130.4017334 C-0.27874052 120.89634866 -0.27053893 111.39097546 -0.2604956 101.8855958 C-0.24930731 91.06095032 -0.24381717 80.23630429 -0.23880017 69.41165447 C-0.22835558 47.15130163 -0.21077308 24.89095916 -0.18847656 2.63061523 C-0.71957031 3.02893555 -1.25066406 3.42725586 -1.79785156 3.83764648 C-6.99316406 7.73413086 -6.99316406 7.73413086 -12.18847656 11.63061523 C-13.17847656 10.64061523 -13.17847656 10.64061523 -14.18847656 9.63061523 C-12.28424143 7.92698348 -10.36729909 6.24349945 -8.43847656 4.56811523 C-7.89964844 4.0827832 -7.36082031 3.59745117 -6.80566406 3.09741211 C-2.67738033 -0.451905 -2.67738033 -0.451905 0 0 Z " fill="#5197D3" transform="translate(425.1884765625,361.369384765625)"/>
<path d="M0 0 C0.99 0.33 1.98 0.66 3 1 C4.12136943 11.80809261 5.06129657 22.60197691 5.70385742 33.45019531 C6.32535491 43.89031399 6.947065 54.02139706 9.3515625 64.22265625 C9.91169894 66.62179486 10.2370591 68.86425753 10.4375 71.3125 C11.18838914 76.23499545 13.07534226 80.43337666 15 85 C17.54096164 91.20323834 18.32604738 95.36976308 17 102 C17.99 102 18.98 102 20 102 C21.06775224 103.96466413 22.06553465 105.96855359 23 108 C22.67 108.66 22.34 109.32 22 110 C21.505 109.505 21.505 109.505 21 109 C21.33 112.63 21.66 116.26 22 120 C15.80550274 110.70825411 12.93220644 99.94481648 9.9375 89.3125 C9.71933624 88.54664581 9.50117249 87.78079163 9.27639771 86.99172974 C5.53678483 73.80120446 2.65612083 60.62579219 1 47 C0.89905029 46.27586914 0.79810059 45.55173828 0.6940918 44.80566406 C-0.41091745 35.87695811 -0.10784154 26.85433596 -0.0625 17.875 C-0.05747515 16.13802212 -0.05291398 14.40104284 -0.04882812 12.6640625 C-0.03790014 8.44267312 -0.02068978 4.22135236 0 0 Z " fill="#040B54" transform="translate(79,391)"/>
<path d="M0 0 C-0.19140625 1.83984375 -0.19140625 1.83984375 -1 4 C-6.58383614 7.57730337 -13.23702244 9.54055618 -19.58984375 11.3125 C-21.99278284 11.9979413 -24.3308709 12.79559416 -26.6875 13.625 C-30.46548757 14.90897798 -34.03605609 15.57830384 -38 16 C-38 16.66 -38 17.32 -38 18 C-41.56170309 18.48520958 -45.1244901 18.96198968 -48.6875 19.4375 C-49.67556641 19.57220703 -50.66363281 19.70691406 -51.68164062 19.84570312 C-78.69769955 23.43035819 -109.5449472 25.52621204 -136 18 C-136.77150391 17.79149414 -137.54300781 17.58298828 -138.33789062 17.36816406 C-146.31682428 15.20377124 -154.18608355 12.69935296 -162 10 C-157.41452383 7.70726191 -150.10624661 11.2770566 -145.4375 12.8125 C-131.19334236 17.27533384 -115.96137997 20.6785641 -101 21 C-101 20.34 -101 19.68 -101 19 C-100.33919434 18.9906543 -99.67838867 18.98130859 -98.99755859 18.97167969 C-75.61417891 18.56292138 -51.37025978 17.3609081 -29 10 C-27.95585937 9.67 -26.91171875 9.34 -25.8359375 9 C-22.87474472 8.04042361 -19.93613757 7.03345634 -17 6 C-15.98292969 5.64679688 -14.96585938 5.29359375 -13.91796875 4.9296875 C-9.47983255 3.35918059 -4.48777016 0 0 0 Z " fill="#163B82" transform="translate(372,392)"/>
<path d="M0 0 C0.99 0.495 0.99 0.495 2 1 C0.6875 3.5 0.6875 3.5 -1 6 C-1.99 6 -2.98 6 -4 6 C-5.37203087 7.61213628 -6.73738143 9.23038854 -8.0703125 10.875 C-10.32004974 13.35244343 -12.75949867 15.35089506 -15.375 17.4375 C-21.45548037 22.29527507 -26.98747669 27.43321961 -31.875 33.5 C-32.57625 34.325 -33.2775 35.15 -34 36 C-34.66 36 -35.32 36 -36 36 C-36.27618164 36.59151855 -36.55236328 37.18303711 -36.83691406 37.79248047 C-37.9382275 39.88275672 -39.09993437 41.51251899 -40.609375 43.3203125 C-41.11388184 43.93310059 -41.61838867 44.54588867 -42.13818359 45.17724609 C-42.67008301 45.82000488 -43.20198242 46.46276367 -43.75 47.125 C-47.82666181 52.1298789 -51.52420096 57.08833032 -54.69921875 62.7265625 C-56.0875214 65.15296534 -57.61153562 67.44165315 -59.1875 69.75 C-62.25539859 74.32775444 -64.75897684 78.19232627 -65.5 83.75 C-65.665 84.8225 -65.83 85.895 -66 87 C-67.485 87.99 -67.485 87.99 -69 89 C-69.72382467 91.05925139 -69.72382467 91.05925139 -70 93 C-70.66 93 -71.32 93 -72 93 C-72.17015625 93.77085938 -72.3403125 94.54171875 -72.515625 95.3359375 C-72.75796875 96.33882813 -73.0003125 97.34171875 -73.25 98.375 C-73.48203125 99.37273437 -73.7140625 100.37046875 -73.953125 101.3984375 C-75 104 -75 104 -77.109375 105.3515625 C-77.73328125 105.56554687 -78.3571875 105.77953125 -79 106 C-74.10879415 75.56583024 -49.67397771 43.73357785 -28 23 C-27.34 23 -26.68 23 -26 23 C-25.505 21.515 -25.505 21.515 -25 20 C-22.84765625 18.01953125 -22.84765625 18.01953125 -20.0625 15.8125 C-19.0725 15.02230469 -18.0825 14.23210938 -17.0625 13.41796875 C-16.051875 12.62003906 -15.04125 11.82210937 -14 11 C-12.18711841 9.54214106 -10.37459119 8.08384127 -8.5625 6.625 C-5.74261683 4.36723522 -2.90022297 2.15369633 0 0 Z " fill="#010441" transform="translate(170,33)"/>
<path d="M0 0 C3.71264723 0.00847858 7.42373559 -0.02027333 11.13623047 -0.05200195 C25.26534542 -0.09293232 38.42436178 0.89557317 52.11669922 4.44604492 C53.35629395 4.76259033 54.59588867 5.07913574 55.87304688 5.40527344 C58.30176993 6.04681919 60.71269765 6.71822793 63.11669922 7.44604492 C59.19245579 10.0622072 56.51061747 9.20732643 52.11669922 8.44604492 C50.96169922 8.26041992 49.80669922 8.07479492 48.61669922 7.88354492 C47.79169922 7.73916992 46.96669922 7.59479492 46.11669922 7.44604492 C46.11669922 6.78604492 46.11669922 6.12604492 46.11669922 5.44604492 C34.97785401 4.407678 23.89237292 4.25981952 12.71337891 4.26074219 C9.75392293 4.25855396 6.79483978 4.24032423 3.83544922 4.22143555 C-12.95049555 4.16974058 -28.4787564 6.13225915 -44.86962891 9.85424805 C-45.87058594 10.0740332 -46.87154297 10.29381836 -47.90283203 10.52026367 C-48.79075439 10.72224365 -49.67867676 10.92422363 -50.59350586 11.13232422 C-52.88330078 11.44604492 -52.88330078 11.44604492 -55.88330078 10.44604492 C-53.48798145 9.79825416 -51.0920833 9.15275483 -48.69580078 8.50854492 C-48.02226562 8.32614258 -47.34873047 8.14374023 -46.65478516 7.95581055 C-43.0818162 6.99720912 -39.5217334 6.1172121 -35.88330078 5.44604492 C-36.54330078 4.78604492 -37.20330078 4.12604492 -37.88330078 3.44604492 C-25.45495713 -0.36254743 -12.87330079 -0.04474 0 0 Z " fill="#244E90" transform="translate(281.88330078125,-0.446044921875)"/>
<path d="M0 0 C0.33 0 0.66 0 1 0 C1.15378978 9.07496215 1.3019711 18.14999339 1.4429636 27.22516346 C1.50860663 31.43897839 1.576192 35.65274362 1.64819336 39.86645508 C1.71758814 43.93178303 1.78191078 47.9971623 1.84269524 52.06262779 C1.86679838 53.61481332 1.89273897 55.16697143 1.92053413 56.71909523 C1.9591087 58.89056739 1.99118974 61.06204463 2.02172852 63.23364258 C2.04171402 64.47052322 2.06169952 65.70740387 2.08229065 66.98176575 C2 70 2 70 1 73 C-1.265625 72.8359375 -1.265625 72.8359375 -4 72 C-5.984375 69.6015625 -5.984375 69.6015625 -7.75 66.625 C-8.34296875 65.64789063 -8.9359375 64.67078125 -9.546875 63.6640625 C-11 61 -11 61 -12 58 C-12.66 58 -13.32 58 -14 58 C-15.4631783 56.02559073 -16.80713064 54.06761129 -18.125 52 C-18.68380859 51.14148438 -18.68380859 51.14148438 -19.25390625 50.265625 C-20.17550408 48.84778218 -21.08855821 47.42439275 -22 46 C-20.02 45.505 -20.02 45.505 -18 45 C-8 55.96666667 -8 55.96666667 -8 61 C-6.35 61.66 -4.7 62.32 -3 63 C-2.99191315 62.31397202 -2.98382629 61.62794403 -2.97549438 60.92112732 C-2.88929114 53.76681298 -2.78978051 46.61277067 -2.68261719 39.45874023 C-2.64332411 36.79045663 -2.60952379 34.1222642 -2.578125 31.45385742 C-2.53234788 27.61358618 -2.47437301 23.7736609 -2.4140625 19.93359375 C-2.39673569 18.15038979 -2.39673569 18.15038979 -2.37905884 16.3311615 C-2.27608466 10.52350674 -1.98303605 5.47944173 0 0 Z " fill="#01063F" transform="translate(545,332)"/>
<path d="M0 0 C0.66 0.33 1.32 0.66 2 1 C2.01981934 2.04865234 2.03963867 3.09730469 2.06005859 4.17773438 C2.13660773 8.09918676 2.22524568 12.02029172 2.31738281 15.94140625 C2.35547015 17.6327423 2.3903569 19.32415378 2.421875 21.015625 C2.46796898 23.45860606 2.52588559 25.90107681 2.5859375 28.34375 C2.59748871 29.08991577 2.60903992 29.83608154 2.62094116 30.6048584 C2.72246942 34.28457592 3.06704881 37.61857447 4.01147461 41.18334961 C4.88728475 44.56481169 5.24610956 47.2586772 5.23046875 50.72265625 C5.22926025 51.74939453 5.22805176 52.77613281 5.22680664 53.83398438 C5.21383545 54.89939453 5.20086426 55.96480469 5.1875 57.0625 C5.18032959 58.16271484 5.17315918 59.26292969 5.16577148 60.39648438 C4.93120291 84.06879709 4.93120291 84.06879709 3 86 C2.89683578 87.38215274 2.86206396 88.76949111 2.85523987 90.1554718 C2.84834137 91.05138031 2.84144287 91.94728882 2.83433533 92.87034607 C2.83172195 93.86099564 2.82910858 94.8516452 2.82641602 95.87231445 C2.819729 96.90966736 2.81304199 97.94702026 2.80615234 99.01580811 C2.79206425 101.27700418 2.7801823 103.5382148 2.77020454 105.79943275 C2.75385087 109.37539045 2.73061508 112.95124056 2.70530701 116.52714539 C2.63437825 126.69732336 2.57439423 136.86754579 2.52319336 147.0378418 C2.49143216 153.25061979 2.45016082 159.46327559 2.40299797 165.67595482 C2.3869571 168.04784131 2.37464522 170.41975599 2.36609077 172.79168129 C2.3539607 176.1077479 2.32981944 179.42352651 2.30297852 182.73950195 C2.30238937 183.72407883 2.30180023 184.7086557 2.30119324 185.72306824 C2.29147491 186.62743622 2.28175659 187.5318042 2.27174377 188.46357727 C2.26751184 189.24764607 2.2632799 190.03171488 2.25891972 190.83954334 C1.9691049 193.25779239 1.20329174 194.89889641 0 197 C-1.65 196.34 -3.3 195.68 -5 195 C-4.67 194.01 -4.34 193.02 -4 192 C-3.01 192.33 -2.02 192.66 -1 193 C-0.10894493 189.93157291 0.13679046 187.1713163 0.16494751 183.98069763 C0.17618149 182.96662338 0.18741547 181.95254913 0.19898987 180.90774536 C0.20997963 179.24496048 0.20997963 179.24496048 0.22119141 177.54858398 C0.2326973 176.37480698 0.24420319 175.20102997 0.25605774 173.99168396 C0.2865402 170.75667517 0.31259157 167.52166947 0.3362546 164.28660464 C0.35685443 161.5406901 0.3803608 158.79480325 0.40379179 156.04891163 C0.45957574 149.49837728 0.51015566 142.94781632 0.55761719 136.3972168 C0.60026288 130.5224811 0.64864176 124.64783111 0.703125 118.77319336 C1.06914552 79.1618462 0.90117093 39.60484284 0 0 Z " fill="#509BD2" transform="translate(423,57)"/>
<path d="M0 0 C0.99 0 1.98 0 3 0 C3.46916005 5.86450067 2.3666659 8.28666774 -1 13 C-1.84251309 14.91329328 -2.53437024 16.8479367 -3.2265625 18.8203125 C-4.04255257 21.11992087 -4.94969859 23.36726456 -5.875 25.625 C-7.54348625 29.75163775 -9.03600592 33.92163048 -10.5 38.125 C-11.81497551 41.87288127 -13.111161 45.41615597 -15.0625 48.875 C-18.3697034 55.00345037 -19.46320763 62.26427172 -21 69 C-21.33 69 -21.66 69 -22 69 C-22.43414279 56.96459702 -21.09007155 45.973401 -16 35 C-15.52046875 33.9584375 -15.0409375 32.916875 -14.546875 31.84375 C-13.51814025 29.62002034 -12.48430563 27.39864267 -11.4453125 25.1796875 C-10.16095325 22.35409716 -8.99237353 19.51961331 -7.875 16.625 C-6.26214247 12.47861211 -4.25373754 8.83135382 -2 5 C-1.29713697 3.34827188 -0.61344757 1.68698082 0 0 Z " fill="#6CA7DC" transform="translate(105,310)"/>
<path d="M0 0 C1.94158017 3.51624755 2.18311068 5.9715651 2 10 C2.66 10 3.32 10 4 10 C4.185625 8.2984375 4.185625 8.2984375 4.375 6.5625 C4.58125 5.386875 4.7875 4.21125 5 3 C5.66 2.67 6.32 2.34 7 2 C6.71517632 3.41805831 6.42181856 4.83440379 6.125 6.25 C5.96257812 7.03890625 5.80015625 7.8278125 5.6328125 8.640625 C5 11 5 11 4 12.8359375 C2.85974126 15.30352868 2.59796853 17.28094011 2.3671875 19.984375 C2.28339844 20.91894531 2.19960937 21.85351562 2.11328125 22.81640625 C2.03464844 23.78449219 1.95601563 24.75257813 1.875 25.75 C1.78863281 26.73355469 1.70226562 27.71710938 1.61328125 28.73046875 C1.40159362 31.15311603 1.19743721 33.57615667 1 36 C1.66 36 2.32 36 3 36 C3.33 35.01 3.66 34.02 4 33 C4.96393831 36.748649 4.84302703 39.25321318 4 43 C4.020625 43.845625 4.04125 44.69125 4.0625 45.5625 C4 48 4 48 3.00390625 49.69921875 C1.59127125 52.93673632 1.80994831 55.73720864 1.875 59.25 C1.89304687 60.51328125 1.91109375 61.7765625 1.9296875 63.078125 C1.95289062 64.04234375 1.97609375 65.0065625 2 66 C-0.49118953 62.2632157 -0.2065226 60.25548181 -0.125 55.8125 C-0.10695313 54.54019531 -0.08890625 53.26789063 -0.0703125 51.95703125 C-0.04710938 50.98121094 -0.02390625 50.00539063 0 49 C-0.99 48.67 -1.98 48.34 -3 48 C-3 38.76 -3 29.52 -3 20 C-2.34 20.66 -1.68 21.32 -1 22 C-0.18565857 19.14839609 0.11881242 16.63373869 0.09765625 13.671875 C0.09443359 12.87265625 0.09121094 12.0734375 0.08789062 11.25 C0.07951172 10.425 0.07113281 9.6 0.0625 8.75 C0.05573242 7.48929687 0.05573242 7.48929687 0.04882812 6.203125 C0.03707961 4.13538599 0.01914522 2.06768376 0 0 Z " fill="#1A3E79" transform="translate(82,343)"/>
<path d="M0 0 C0.66 0.33 1.32 0.66 2 1 C0.01809704 6.07862633 -2.70527536 8.70455545 -6.765625 12.10546875 C-13.69370528 17.97980256 -19.42274047 24.56403295 -24.81396484 31.83447266 C-25.85658669 33.23759993 -26.92574254 34.6209433 -28 36 C-28.33 36 -28.66 36 -29 36 C-29.56289324 32.8722715 -29.53943954 30.78558562 -27.70947266 28.12060547 C-25.80876744 25.98582065 -23.83744588 23.95487985 -21.8125 21.9375 C-21.09449219 21.19959229 -20.37648437 20.46168457 -19.63671875 19.70141602 C-17.43980929 17.45186418 -15.22262732 15.22411668 -13 13 C-11.68063691 11.66701564 -10.36160637 10.33370202 -9.04296875 9 C-6.04719485 5.98088764 -3.03071953 2.98401324 0 0 Z " fill="#3070B0" transform="translate(151,261)"/>
<path d="M0 0 C3.10379819 0.92275081 4.64617307 1.39343955 6.3125 4.25 C8.43562067 7.70990035 11.03851077 9.40287492 14.35546875 11.66796875 C14.89816406 12.10753906 15.44085937 12.54710937 16 13 C16 13.66 16 14.32 16 15 C16.61875 15.28875 17.2375 15.5775 17.875 15.875 C20 17 20 17 22 19 C22.125 22.625 22.125 22.625 22 26 C21.67 24.68 21.34 23.36 21 22 C19.35 21.67 17.7 21.34 16 21 C16 20.34 16 19.68 16 19 C15.236875 18.76796875 14.47375 18.5359375 13.6875 18.296875 C10.43326009 16.72651504 9.68106543 15.40199768 8 12.25 C5.65771858 8.05695218 3.14742312 4.61027946 0 1 C0 0.67 0 0.34 0 0 Z " fill="#1D4388" transform="translate(510,354)"/>
<path d="M0 0 C1.29550781 0.39638672 1.29550781 0.39638672 2.6171875 0.80078125 C4.90426855 1.60945321 6.98666935 2.5487146 9.125 3.6875 C9.125 4.3475 9.125 5.0075 9.125 5.6875 C10.115 5.3575 11.105 5.0275 12.125 4.6875 C14.8125 5.625 14.8125 5.625 17.125 6.6875 C17.125 7.3475 17.125 8.0075 17.125 8.6875 C18.115 8.3575 19.105 8.0275 20.125 7.6875 C22.3125 9 22.3125 9 24.125 10.6875 C24.125 11.3475 24.125 12.0075 24.125 12.6875 C20.07756415 11.73300013 16.2548923 10.29089762 12.375 8.8125 C11.35792969 8.42771484 11.35792969 8.42771484 10.3203125 8.03515625 C8.94962796 7.51658929 7.57918527 6.99738261 6.20898438 6.47753906 C-0.30104672 3.99376121 -0.30104672 3.99376121 -6.875 1.6875 C-6.875 1.0275 -6.875 0.3675 -6.875 -0.3125 C-4.11475889 -1.69262056 -2.90540064 -0.90955421 0 0 Z " fill="#66ABDF" transform="translate(354.875,212.3125)"/>
<path d="M0 0 C0.66 0.33 1.32 0.66 2 1 C0.86898396 13.39304813 0.86898396 13.39304813 -1 19 C-1.06970052 21.39490986 -1.08448003 23.79167691 -1.0625 26.1875 C-1.05347656 27.45980469 -1.04445313 28.73210937 -1.03515625 30.04296875 C-1.02355469 31.01878906 -1.01195313 31.99460937 -1 33 C-3.49118953 29.2632157 -3.2065226 27.25548181 -3.125 22.8125 C-3.10695313 21.54019531 -3.08890625 20.26789063 -3.0703125 18.95703125 C-3.04710938 17.98121094 -3.02390625 17.00539063 -3 16 C-3.99 15.67 -4.98 15.34 -6 15 C-6 13.35 -6 11.7 -6 10 C-4.68 10.33 -3.36 10.66 -2 11 C-1.34 7.37 -0.68 3.74 0 0 Z " fill="#112974" transform="translate(85,376)"/>
<path d="M0 0 C0.33 0 0.66 0 1 0 C1.19493195 2.27020744 1.38070418 4.54120289 1.5625 6.8125 C1.66691406 8.07707031 1.77132812 9.34164063 1.87890625 10.64453125 C2 14 2 14 1 17 C-0.32 16.67 -1.64 16.34 -3 16 C-3 11.38 -3 6.76 -3 2 C-2.67 3.32 -2.34 4.64 -2 6 C-1.34 6 -0.68 6 0 6 C0 4.02 0 2.04 0 0 Z " fill="#2E62A2" transform="translate(82,370)"/>
<path d="M0 0 C0.99 0.33 1.98 0.66 3 1 C-2.14264077 17.13275125 -2.14264077 17.13275125 -8 24 C-4.25531915 4.25531915 -4.25531915 4.25531915 0 0 Z " fill="#1B3675" transform="translate(100,331)"/>
<path d="M0 0 C2.475 0.99 2.475 0.99 5 2 C4.67 8.6 4.34 15.2 4 22 C3.67 22 3.34 22 3 22 C3 17.38 3 12.76 3 8 C1.68 7.67 0.36 7.34 -1 7 C-1.04254356 5.00045254 -1.04080783 2.99958364 -1 1 C-0.67 0.67 -0.34 0.34 0 0 Z " fill="#1B57A0" transform="translate(542,213)"/>
<path d="M0 0 C0.99 0 1.98 0 3 0 C4.06775224 1.96466413 5.06553465 3.96855359 6 6 C5.67 6.66 5.34 7.32 5 8 C4.67 7.67 4.34 7.34 4 7 C4.33 10.63 4.66 14.26 5 18 C1.71242974 13.06864461 -1.95733439 7.1269401 -1 1 C-0.67 0.67 -0.34 0.34 0 0 Z " fill="#11377B" transform="translate(96,493)"/>
<path d="M0 0 C1.25 1.5625 1.25 1.5625 2 4 C1.05765638 5.78720342 0.1013486 7.57202211 -0.98828125 9.2734375 C-2.15611868 11.04807924 -2.15611868 11.04807924 -2.5 13.5625 C-3.19454884 16.94842561 -5.00038095 19.22633487 -7 22 C-8 20 -8 20 -7.00390625 16.5234375 C-6.53099953 15.13802064 -6.05018356 13.75528453 -5.5625 12.375 C-5.31951172 11.66859375 -5.07652344 10.9621875 -4.82617188 10.234375 C-4.22412795 8.48726713 -3.61291983 6.74332214 -3 5 C-2.34 5 -1.68 5 -1 5 C-0.67 3.35 -0.34 1.7 0 0 Z " fill="#131E68" transform="translate(101,121)"/>
<path d="M0 0 C1 3 1 3 -0.6875 6.5 C-1.05746094 7.1909375 -1.42742187 7.881875 -1.80859375 8.59375 C-3.94160211 12.90172755 -5.43182083 17.46229007 -7 22 C-7.66 22 -8.32 22 -9 22 C-7.83805848 15.53287812 -5.8751252 9.90377651 -3 4 C-2.34 4 -1.68 4 -1 4 C-0.67 2.68 -0.34 1.36 0 0 Z " fill="#29528B" transform="translate(100,317)"/>
<path d="M0 0 C1.32 0 2.64 0 4 0 C3.34 1.98 2.68 3.96 2 6 C2.99 6.33 3.98 6.66 5 7 C5 8.98 5 10.96 5 13 C4.34 12.67 3.68 12.34 3 12 C3 11.34 3 10.68 3 10 C2.01 9.67 1.02 9.34 0 9 C-1.3125 6.6875 -1.3125 6.6875 -2 4 C-1.125 1.6875 -1.125 1.6875 0 0 Z " fill="#12357B" transform="translate(473,304)"/>
<path d="M0 0 C1.32 0.33 2.64 0.66 4 1 C2.52485505 3.1695061 1.0451561 5.33563707 -0.4375 7.5 C-0.85837891 8.12003906 -1.27925781 8.74007813 -1.71289062 9.37890625 C-2.78308137 10.93710398 -3.88879518 12.47078051 -5 14 C-5.33 14 -5.66 14 -6 14 C-5.62257767 7.83543524 -3.84129692 4.82624485 0 0 Z " fill="#316CB4" transform="translate(118,297)"/>
<path d="M0 0 C0.66 0 1.32 0 2 0 C1.48877304 4.47323588 -0.16665031 6.58331362 -3 10 C-3.53625 11.0725 -4.0725 12.145 -4.625 13.25 C-6 16 -6 16 -8 17 C-7.8484367 10.02808822 -4.52263822 5.1911113 0 0 Z " fill="#1C3B79" transform="translate(110,313)"/>
<path d="M0 0 C1.37344385 4.39844322 0.24307502 7.92504555 -0.9375 12.25 C-1.23043945 13.36761719 -1.23043945 13.36761719 -1.52929688 14.5078125 C-2.01104198 16.34079386 -2.50439225 18.17071818 -3 20 C-3.33 20 -3.66 20 -4 20 C-4.35309809 12.88572728 -4.01004614 7.50169966 -1 1 C-0.67 0.67 -0.34 0.34 0 0 Z " fill="#66A4E2" transform="translate(87,359)"/>
<path d="M0 0 C0.66 0.33 1.32 0.66 2 1 C0.89847594 2.43952597 -0.2063304 3.87654071 -1.3125 5.3125 C-1.92738281 6.11300781 -2.54226563 6.91351563 -3.17578125 7.73828125 C-5 10 -5 10 -6.640625 11.63671875 C-8.1794296 13.06218559 -8.1794296 13.06218559 -9.4375 15.5 C-11.03796923 18.06075077 -12.49756426 19.36047314 -15 21 C-11.45443085 13.2542951 -5.5457431 6.41226546 0 0 Z " fill="#4291D5" transform="translate(539,224)"/>
<path d="M0 0 C4.99497993 2.19291802 9.2560603 5.02344866 13 9 C13 9.66 13 10.32 13 11 C9.16336928 9.65070536 6.34827431 7.92248975 3.1875 5.375 C2.39730469 4.74335938 1.60710937 4.11171875 0.79296875 3.4609375 C0.20128906 2.97882813 -0.39039063 2.49671875 -1 2 C-0.67 1.34 -0.34 0.68 0 0 Z " fill="#63AADF" transform="translate(403,238)"/>
<path d="M0 0 C0.66 0.33 1.32 0.66 2 1 C-0.64 5.62 -3.28 10.24 -6 15 C-6.99 15 -7.98 15 -9 15 C-8.38125 14.113125 -7.7625 13.22625 -7.125 12.3125 C-5.33039865 9.5150332 -4.20695649 7.0576231 -3 4 C-2.04175747 2.63634717 -1.05278825 1.29205831 0 0 Z " fill="#244F93" transform="translate(110,298)"/>
<path d="M0 0 C2.475 0.99 2.475 0.99 5 2 C5 3.98 5 5.96 5 8 C4.34 7.34 3.68 6.68 3 6 C2.01 6 1.02 6 0 6 C-0.38218767 4.34385343 -0.71395102 2.67542976 -1 1 C-0.67 0.67 -0.34 0.34 0 0 Z " fill="#12336D" transform="translate(542,213)"/>
<path d="M0 0 C0.66 0.33 1.32 0.66 2 1 C-0.97 4.96 -0.97 4.96 -4 9 C-4.66 8.34 -5.32 7.68 -6 7 C-2.25 1.125 -2.25 1.125 0 0 Z " fill="#265194" transform="translate(117,288)"/>
<path d="M0 0 C3.43927579 1.2419607 6.25207819 2.55740284 9 5 C9 5.66 9 6.32 9 7 C5.40608886 5.66511872 2.24509304 4.03977277 -1 2 C-0.67 1.34 -0.34 0.68 0 0 Z " fill="#62A3DA" transform="translate(389,229)"/>
<path d="M0 0 C1.29818286 4.21679254 0.37201755 6.81173591 -1 11 C-1.37125 12.134375 -1.7425 13.26875 -2.125 14.4375 C-2.41375 15.283125 -2.7025 16.12875 -3 17 C-3.33 17 -3.66 17 -4 17 C-3.58411954 10.80481527 -2.39748106 5.73310689 0 0 Z " fill="#3A72AD" transform="translate(88,347)"/>
<path d="M0 0 C0.33 0 0.66 0 1 0 C1.309375 1.11375 1.61875 2.2275 1.9375 3.375 C2.82326483 6.7945155 2.82326483 6.7945155 4 9 C3.01 10.32 2.02 11.64 1 13 C0.1276588 10.00519083 -0.10829766 7.36424089 -0.0625 4.25 C-0.05347656 3.45078125 -0.04445313 2.6515625 -0.03515625 1.828125 C-0.02355469 1.22484375 -0.01195313 0.6215625 0 0 Z " fill="#08163B" transform="translate(78,330)"/>
<path d="M0 0 C0.66 0.33 1.32 0.66 2 1 C-0.46153846 4.81538462 -0.46153846 4.81538462 -3.1875 5.75 C-3.785625 5.8325 -4.38375 5.915 -5 6 C-4.1875 3.5625 -4.1875 3.5625 -3 1 C-2.01 0.67 -1.02 0.34 0 0 Z " fill="#3779BA" transform="translate(158,255)"/>
<path d="M0 0 C3.68754757 0.49831724 5.60490662 1.10067643 8 4 C4.79604584 4 2.90600261 3.25664978 0 2 C0 1.34 0 0.68 0 0 Z " fill="#66A7DC" transform="translate(380,225)"/>
<path d="M0 0 C2.64 0.66 5.28 1.32 8 2 C8 2.33 8 2.66 8 3 C2.06 3.495 2.06 3.495 -4 4 C-3.01 3.67 -2.02 3.34 -1 3 C-0.67 2.01 -0.34 1.02 0 0 Z " fill="#082767" transform="translate(251,216)"/>
<path d="M0 0 C0.99 0.33 1.98 0.66 3 1 C0.525 4.465 0.525 4.465 -2 8 C-2.33 7.01 -2.66 6.02 -3 5 C-2.34 5 -1.68 5 -1 5 C-0.67 3.35 -0.34 1.7 0 0 Z " fill="#1D5490" transform="translate(119,297)"/>
<path d="M0 0 C2.64 0 5.28 0 8 0 C8.66 1.32 9.32 2.64 10 4 C6.7 3.01 3.4 2.02 0 1 C0 0.67 0 0.34 0 0 Z " fill="#5490CD" transform="translate(359,217)"/>
</svg>
